<svg version="1.1" id="Layer_1" xmlns="http://www.w3.org/2000/svg" xmlns:xlink="http://www.w3.org/1999/xlink" x="0px" y="0px"
	 width="100%" viewBox="0 0 498 501" enable-background="new 0 0 498 501" xml:space="preserve">
<path fill="#000000" opacity="1.000000" stroke="none" 
	d="
M498.669006,308.775726 
	C499.000000,371.982117 498.968658,434.964264 499.088379,497.946136 
	C499.094666,501.250885 498.590393,502.103729 495.055878,502.101227 
	C331.769012,501.984772 168.482040,501.982727 5.195202,502.107910 
	C1.442127,502.110809 0.913049,501.156799 0.915101,497.697479 
	C1.012467,333.577484 1.019942,169.457443 0.884934,5.337506 
	C0.881561,1.237134 2.194688,0.920603 5.660095,0.923415 
	C119.794235,1.016048 233.928467,1.000000 348.531342,1.000000 
	C350.940491,3.560773 349.019043,5.381415 347.684113,7.180281 
	C342.528717,14.127412 337.903809,21.436888 332.959808,28.527416 
	C331.718109,30.308254 330.683411,32.209007 329.853058,34.206593 
	C327.974030,38.727104 329.350677,43.075142 333.505798,45.951443 
	C337.121277,48.454174 342.087921,48.093433 345.385498,44.809616 
	C350.009491,40.204952 353.523376,34.691525 356.949158,29.216373 
	C360.202362,24.017097 364.377106,19.370031 366.746857,13.227869 
	C367.359711,11.607136 367.741699,10.300052 367.306519,8.568123 
	C366.502380,6.046346 364.086731,4.278063 365.765686,1.279379 
	C408.790131,1.000000 451.580658,1.085384 494.369690,0.868564 
	C498.671600,0.846765 499.100342,2.050416 499.095673,5.860894 
	C498.974640,104.261383 499.000000,202.662048 499.000000,301.531342 
	C498.643585,302.329895 498.227356,302.524567 497.397339,302.476562 
	C495.075897,300.575012 494.564758,297.498535 491.555145,296.130463 
	C489.715973,294.829163 488.014160,294.243134 485.717468,294.440674 
	C478.472229,293.090759 472.219208,289.601135 465.228851,288.598175 
	C463.094635,288.291992 461.002045,287.660156 458.869965,287.272491 
	C451.030548,285.846985 446.893127,287.814911 445.334778,293.711731 
	C443.903137,299.129028 446.718658,303.650940 453.803284,305.697327 
	C464.649719,308.830322 475.332794,312.754181 486.772614,313.477417 
	C490.778259,313.730652 493.986633,312.677582 496.467560,308.912628 
	C497.288361,308.470184 497.806610,308.429230 498.669006,308.775726 
z"/>
<path fill="#E0C180" opacity="1.000000" stroke="none" 
	d="
M368.198242,12.822091 
	C368.633392,16.164043 366.202454,18.109619 364.859772,20.017431 
	C358.935730,28.435015 353.981354,37.536991 347.171021,45.334713 
	C343.881500,49.101124 336.969177,50.474201 333.389618,47.945610 
	C327.217957,43.585976 325.523193,38.246170 328.750366,32.746544 
	C334.265289,23.348118 340.568390,14.475411 347.029572,5.711256 
	C347.993896,4.403245 348.763184,2.951439 349.311340,1.283077 
	C354.354919,1.000000 359.709869,1.000000 365.532410,1.000000 
	C364.112244,4.461218 368.673859,4.869402 368.896729,7.674469 
	C368.180939,9.494757 368.682983,11.037339 368.198242,12.822091 
z"/>
<path fill="#F1E4C6" opacity="1.000000" stroke="none" 
	d="
M496.647705,302.300537 
	C497.487579,302.165253 497.977112,302.392700 498.733337,302.310089 
	C499.000000,304.041656 499.000000,306.083344 499.000000,308.562500 
	C498.638367,308.409180 498.225830,308.366516 497.384216,309.033997 
	C495.080811,307.193726 495.197662,304.981995 496.647705,302.300537 
z"/>
<path fill="#E0C17F" opacity="1.000000" stroke="none" 
	d="
M204.741150,416.836334 
	C204.888000,417.041138 205.014389,417.417419 205.023026,417.615662 
	C205.703033,419.758514 205.526260,422.056580 207.631500,423.766907 
	C207.861755,424.034271 207.995056,424.440155 208.009552,424.653259 
	C208.162888,425.053009 208.301727,425.239655 208.639984,425.712555 
	C213.365891,435.376648 218.074142,444.684570 219.989258,455.460205 
	C221.107925,459.622406 220.260818,463.464630 220.212601,467.688934 
	C220.533691,471.013153 217.738266,472.935455 217.440613,475.845459 
	C216.573242,476.403992 216.502991,477.027374 216.215256,477.884338 
	C216.093094,478.163910 216.063553,478.047974 216.123047,478.041718 
	C215.851303,478.195923 215.564453,478.415466 215.167862,478.916138 
	C215.019592,479.145996 215.021652,479.005341 215.091919,479.008423 
	C214.646667,479.347260 214.506073,479.887268 214.187302,480.637939 
	C203.292160,493.182190 180.444473,493.203613 169.992462,480.474304 
	C169.771637,479.830292 169.547150,479.561005 169.085236,479.161865 
	C168.864838,479.017914 168.984283,479.019562 168.980789,479.079193 
	C168.794113,478.828949 168.569962,478.552246 168.074432,478.170715 
	C167.843994,478.032745 167.944916,478.043823 167.931854,478.092896 
	C167.621536,477.606750 167.519928,477.003357 167.102234,476.226501 
	C158.010101,464.078430 150.170166,451.445343 142.334793,438.828796 
	C134.518997,426.243713 125.634659,414.331573 118.351707,401.045837 
	C117.520752,400.510620 117.525734,399.877838 117.036530,399.209229 
	C116.805901,399.037750 116.944130,399.036438 116.937645,399.105255 
	C116.825531,398.849457 116.644165,398.574921 116.238457,398.150330 
	C115.469429,396.878448 114.849007,395.806671 114.102234,394.438324 
	C113.794701,393.875793 113.603706,393.617035 113.261147,393.170349 
	C113.119377,392.975128 112.996948,392.570953 112.988113,392.359985 
	C112.390869,391.276093 112.134315,390.207947 111.127808,389.242004 
	C110.874641,389.051971 110.968956,389.029388 110.975784,389.077393 
	C110.793770,388.816223 110.558197,388.548065 110.047935,388.176575 
	C109.263290,387.580048 108.706490,387.128113 108.067329,386.413330 
	C107.711624,385.758820 107.331573,385.553833 106.518250,385.500977 
	C104.342384,385.510223 102.508339,385.451752 100.353615,385.654785 
	C100.031960,385.777039 99.593102,385.974792 99.352592,385.983795 
	C98.393654,386.656281 97.478600,386.429871 96.344810,386.680481 
	C96.051819,386.821472 95.612831,387.004211 95.375374,387.016113 
	C93.743584,387.905853 92.178032,387.291199 90.362144,387.680664 
	C89.597145,387.881531 89.181061,387.937653 88.447815,387.988892 
	C84.051842,389.079529 79.902473,388.256958 75.357224,388.232025 
	C60.303322,386.899811 47.480560,381.265564 35.892406,372.501129 
	C21.737667,361.795502 13.683012,347.205139 9.161016,330.407837 
	C8.701064,328.699310 9.028272,326.778900 8.979883,324.520966 
	C8.088493,322.709473 8.712245,321.159790 8.317814,319.367035 
	C6.556508,302.021606 10.700626,286.255493 20.365189,272.485168 
	C28.597277,260.755890 39.300529,251.276962 52.847500,245.590561 
	C53.415627,245.352081 53.806793,244.692001 54.635536,244.194336 
	C55.186348,244.227814 55.382027,244.295319 55.782097,244.129089 
	C55.986488,243.895355 55.981422,243.976624 55.941124,243.970856 
	C56.408779,243.595566 57.032536,243.521866 57.796402,243.067459 
	C57.994274,242.834335 57.970821,242.953262 57.912796,242.935760 
	C58.375221,242.649094 58.933971,242.508560 59.764503,242.287994 
	C62.587223,240.477142 65.143242,238.780014 68.540886,237.991852 
	C69.180199,237.767426 69.437645,237.548386 69.838669,237.115692 
	C69.992134,236.913727 69.927788,236.980026 69.896133,236.946381 
	C70.634911,236.415924 71.518311,236.544174 72.655197,236.325684 
	C85.795853,229.732117 98.657700,223.299408 111.490471,216.809204 
	C127.000381,208.965012 142.436676,200.919800 156.693314,190.956253 
	C174.552994,178.474640 190.061691,163.537781 203.116989,145.914047 
	C211.594009,134.470688 218.773834,122.472298 224.226364,109.375031 
	C227.089493,102.497658 229.385651,95.456238 229.932068,87.983650 
	C230.044189,86.450546 230.520615,85.140900 231.089661,83.361328 
	C231.880997,79.896690 231.371399,76.803284 231.307831,73.374100 
	C229.037216,64.698593 229.340240,56.685257 234.515198,49.122620 
	C235.411026,48.609676 235.497284,47.985565 235.780884,47.116333 
	C235.902878,46.833298 235.925995,46.944206 235.869370,46.945782 
	C236.150940,46.794010 236.443848,46.578968 236.818298,46.057396 
	C236.945145,45.812584 236.976944,45.946800 236.908813,45.957504 
	C237.161163,45.795742 237.444305,45.575325 237.834229,45.077217 
	C237.978333,44.847492 237.990662,44.984467 237.922028,44.988770 
	C238.157333,44.810486 238.428604,44.587624 238.833344,44.120377 
	C238.995178,43.910973 238.979797,43.999435 238.935806,43.990479 
	C239.178543,43.794151 239.439209,43.575691 239.824738,43.119308 
	C239.975662,42.912464 239.953171,42.983196 239.919586,42.967422 
	C240.177719,42.797821 240.441055,42.605175 240.888535,42.250923 
	C249.857971,36.343777 263.682312,36.887070 270.661407,43.098724 
	C271.527679,43.504917 272.118958,43.495983 272.908264,43.794788 
	C273.171661,43.897953 273.057587,43.919933 273.057251,43.861855 
	C273.203522,44.148769 273.420807,44.442692 273.945099,44.821129 
	C274.191284,44.949535 274.073730,44.943172 274.086914,44.885818 
	C274.369537,45.386627 274.480011,45.998386 274.917358,46.784004 
	C278.701080,49.010159 279.186890,53.002037 281.015747,56.494980 
	C281.219666,57.154606 281.446014,57.432083 281.919678,57.837547 
	C282.146240,57.982452 282.043121,57.955116 282.062836,57.905556 
	C282.349579,58.374466 282.491669,58.929974 282.705933,59.758675 
	C284.454956,60.981857 283.499664,63.118801 284.893280,64.569366 
	C285.213409,65.138733 285.404327,65.385559 285.722534,65.828880 
	C285.851105,66.024429 286.011139,66.409836 286.013306,66.618477 
	C286.200531,67.105858 286.395844,67.377304 286.733337,67.854904 
	C286.866913,68.067276 287.015167,68.414703 287.018860,68.603539 
	C287.198639,69.090370 287.393311,69.375641 287.756287,69.860046 
	C287.905792,70.071960 288.036102,70.416328 288.033356,70.600403 
	C288.352692,71.297920 288.486176,71.870872 288.697021,72.725204 
	C288.833862,72.987831 288.987335,73.414368 289.003052,73.640472 
	C289.225128,74.161148 289.451599,74.439224 289.936005,74.830399 
	C290.170746,74.962532 290.063568,74.961349 290.072083,74.908447 
	C290.348755,75.373688 290.491608,75.929184 290.709656,76.756378 
	C295.921417,87.749947 300.990784,98.492622 306.070801,109.230270 
	C309.367493,116.198631 312.679749,123.159637 316.000366,130.488922 
	C316.414581,131.361008 316.475372,131.997055 316.898682,132.795471 
	C317.123230,133.010483 317.020264,132.983490 317.036469,132.932800 
	C317.347809,133.372452 317.490326,133.911575 317.687073,134.724640 
	C321.205078,141.893295 324.834198,148.708710 327.880981,155.775208 
	C329.233795,158.912811 330.799713,159.249863 333.811768,158.717255 
	C343.435730,157.015549 352.879578,157.489670 361.876221,162.569000 
	C362.674469,163.780441 363.685394,163.384399 364.830811,163.758682 
	C365.137329,163.907608 365.055542,163.929657 365.054138,163.887329 
	C365.168427,164.147217 365.346619,164.406448 365.710938,164.825775 
	C375.755127,174.751465 380.850769,186.381104 376.713135,200.034454 
	C374.265259,208.111984 369.127380,215.215927 361.716614,220.059311 
	C359.781860,221.323776 359.546936,222.934616 360.381744,224.718063 
	C364.887054,234.343079 369.522217,243.907272 374.030701,253.530823 
	C376.444824,258.683838 378.694122,263.914093 381.020447,269.493073 
	C381.228638,270.169556 381.457062,270.443573 381.940277,270.829651 
	C382.175507,270.957947 382.067139,270.958527 382.075317,270.904968 
	C382.942902,272.619934 382.668671,274.683075 383.789246,276.713257 
	C389.943481,284.587708 392.290161,293.976349 396.662109,302.363831 
	C401.362976,311.382324 405.260681,320.817139 409.604736,330.025055 
	C411.301422,333.621429 411.036499,337.374054 410.901672,341.588806 
	C410.198578,343.476746 410.569427,344.978485 410.702209,346.742645 
	C406.638184,366.179688 380.280670,372.438385 365.309021,356.009155 
	C364.727692,355.689026 364.481934,355.485687 364.043518,355.147034 
	C363.832489,355.033905 363.974365,355.037018 363.968018,355.107697 
	C363.807861,354.857300 363.599579,354.576630 363.123779,354.179199 
	C362.910767,354.022003 362.984253,354.023712 362.979767,354.060181 
	C362.764313,353.774628 362.502563,353.500275 361.941284,353.137177 
	C361.384918,353.048828 361.163361,352.935486 361.005066,352.469696 
	C360.814697,351.919769 360.585846,351.606995 360.060333,351.168884 
	C353.421906,346.710876 347.025452,342.418182 340.308197,337.969055 
	C339.476074,337.497101 338.868988,337.502930 338.066772,337.168518 
	C337.814148,337.021240 337.413452,337.011383 337.226868,336.938293 
	C336.760101,336.690063 336.491302,336.498962 336.027466,336.155334 
	C335.821075,336.018829 335.434479,336.022705 335.252136,335.958527 
	C334.790985,335.707489 334.518341,335.511993 334.043396,335.167053 
	C333.833832,335.027679 333.399933,334.990295 333.195068,334.916443 
	C331.543854,334.114777 330.026001,333.609619 328.125854,333.197418 
	C327.830536,333.019623 327.424713,332.995087 327.235779,332.919983 
	C326.024536,332.058533 324.940338,331.437439 323.296021,331.682983 
	C316.955414,330.873199 310.901062,329.928192 304.417999,328.908142 
	C302.232941,328.134003 300.382629,328.696472 298.255005,328.238098 
	C297.477905,328.022217 297.039703,327.999725 296.282898,327.894897 
	C291.227600,327.095642 286.456238,327.722015 281.305359,327.250183 
	C280.902466,327.056000 280.502228,327.008179 280.300720,327.012085 
	C275.721619,328.068939 271.267883,327.183167 266.439758,327.672577 
	C265.596069,327.868317 265.175385,327.926971 264.433746,327.986328 
	C262.741913,328.949951 261.166107,328.270630 259.361206,328.685822 
	C244.669052,330.164825 230.645966,332.952454 216.924286,337.446411 
	C213.206024,338.664185 208.936157,338.470734 211.776123,344.636719 
	C211.080917,349.774078 211.728912,354.558807 211.269745,359.731567 
	C211.094254,360.144287 211.091782,360.059753 211.131500,360.074310 
	C210.144623,360.623413 209.824020,361.667511 209.193878,362.877808 
	C208.558624,363.724854 208.084808,364.298798 207.336304,364.946442 
	C206.132294,365.844208 205.259750,366.725220 204.255478,367.904541 
	C204.083984,368.162994 204.057373,368.052887 204.113800,368.047852 
	C203.841232,368.200989 203.562302,368.422302 203.185089,368.933044 
	C200.311127,371.027405 197.585480,372.895294 194.543640,374.892517 
	C193.679184,375.382629 193.034760,375.476257 192.209961,375.906860 
	C191.993515,376.143616 192.006073,376.012177 192.071655,376.019897 
	C191.846390,376.172211 191.589233,376.362335 191.164459,376.730286 
	C187.560776,378.825287 187.430939,381.418243 189.247589,384.624146 
	C194.811539,394.443115 198.947174,404.946930 203.877213,415.470825 
	C204.198135,416.089355 204.387268,416.366516 204.741150,416.836334 
z"/>
<path fill="#E0C180" opacity="1.000000" stroke="none" 
	d="
M419.310089,160.229889 
	C414.101807,160.325073 412.200409,156.628952 411.231567,153.253143 
	C409.990692,148.929489 410.690002,143.951218 414.573730,141.220154 
	C422.007050,135.992996 429.912384,131.426147 437.718750,126.746971 
	C440.172028,125.276497 442.398529,123.536743 445.406036,122.765816 
	C452.484406,120.951385 456.385742,121.994720 461.023743,128.417038 
	C461.948212,130.553253 461.331573,132.457092 461.230713,134.720306 
	C460.627197,140.386581 456.079437,142.386902 452.636505,144.598129 
	C443.995453,150.147827 434.871643,154.945847 425.578918,160.028381 
	C423.447296,160.935318 421.559052,160.339630 419.310089,160.229889 
z"/>
<path fill="#DFC17F" opacity="1.000000" stroke="none" 
	d="
M496.997314,301.561005 
	C496.988129,304.049988 496.978271,306.162170 496.987793,308.728699 
	C496.360870,313.421814 494.037842,314.995239 489.630890,315.137482 
	C480.099091,315.445160 471.402924,312.115814 462.461273,309.804688 
	C458.567657,308.798309 454.753235,307.489380 450.873627,306.424133 
	C444.480408,304.668701 441.963989,297.471100 443.941925,292.066193 
	C446.042328,286.326660 451.201172,284.018585 457.899994,285.342438 
	C467.238434,287.187958 476.303680,289.874725 485.645996,293.112122 
	C487.878357,293.684570 489.686890,294.302185 491.887146,294.791260 
	C494.960327,296.142914 497.109924,297.791107 496.997314,301.561005 
z"/>
<path fill="#ECDEB8" opacity="1.000000" stroke="none" 
	d="
M281.111755,327.442261 
	C285.700653,327.149780 290.498810,327.243561 295.630615,327.574921 
	C291.083191,327.817841 286.202148,327.823181 281.111755,327.442261 
z"/>
<path fill="#E1CCA4" opacity="1.000000" stroke="none" 
	d="
M211.481049,359.928162 
	C211.173233,355.323792 211.252213,350.503296 211.577667,345.354523 
	C211.838699,349.921509 211.853271,354.816742 211.481049,359.928162 
z"/>
<path fill="#ECDEB8" opacity="1.000000" stroke="none" 
	d="
M266.475281,327.885071 
	C270.303833,326.014008 274.788025,327.403839 279.630127,327.006256 
	C275.843964,329.187073 271.309113,327.461578 266.475281,327.885071 
z"/>
<path fill="#FAF0D6" opacity="1.000000" stroke="none" 
	d="
M75.122955,388.415649 
	C79.010956,387.999573 83.097488,387.973083 87.657333,387.965271 
	C83.984871,390.190948 79.594994,388.590576 75.122955,388.415649 
z"/>
<path fill="#FFFFE0" opacity="1.000000" stroke="none" 
	d="
M220.385284,467.923950 
	C219.974060,464.344421 219.961349,460.575745 219.959488,456.334351 
	C222.112747,459.691162 220.662979,463.766785 220.385284,467.923950 
z"/>
<path fill="#E6D3A7" opacity="1.000000" stroke="none" 
	d="
M231.083679,73.467232 
	C232.679596,76.050385 232.026505,79.197502 231.411865,82.640900 
	C231.119858,79.939629 231.066666,76.927284 231.083679,73.467232 
z"/>
<path fill="#E6D3A7" opacity="1.000000" stroke="none" 
	d="
M383.996765,276.591644 
	C380.886536,276.164917 382.410858,273.556335 382.046387,271.269287 
	C383.711700,272.285248 384.201965,274.116455 383.996765,276.591644 
z"/>
<path fill="#E1CCA4" opacity="1.000000" stroke="none" 
	d="
M207.940521,423.667175 
	C204.529709,423.492126 205.092789,420.882172 205.011017,418.219727 
	C206.027542,419.642639 207.023407,421.471375 207.940521,423.667175 
z"/>
<path fill="#E1CCA4" opacity="1.000000" stroke="none" 
	d="
M492.018494,294.625854 
	C490.185944,295.117065 488.258209,294.883575 486.293396,293.437958 
	C488.189117,292.400787 489.989410,293.466278 492.018494,294.625854 
z"/>
<path fill="#E1CCA4" opacity="1.000000" stroke="none" 
	d="
M327.984314,333.357697 
	C329.531616,332.985870 331.292358,332.720276 332.791321,334.543793 
	C331.118103,335.538055 329.743195,334.130005 327.984314,333.357697 
z"/>
<path fill="#E1CCA4" opacity="1.000000" stroke="none" 
	d="
M204.431427,368.098083 
	C204.027451,366.535187 204.735718,365.479340 206.713470,365.066376 
	C207.004303,366.557556 206.493744,367.751587 204.431427,368.098083 
z"/>
<path fill="#F1E4C6" opacity="1.000000" stroke="none" 
	d="
M100.464577,385.843628 
	C101.949936,384.518311 104.102310,385.055481 106.580566,384.990784 
	C107.106590,385.147583 107.226173,385.288940 107.165855,385.641907 
	C104.956360,385.872406 102.926781,385.891327 100.464577,385.843628 
z"/>
<path fill="#F1E4C6" opacity="1.000000" stroke="none" 
	d="
M298.093842,328.410736 
	C299.744446,328.139008 301.572815,328.233337 303.695251,328.580383 
	C302.083405,328.814362 300.177521,328.795563 298.093842,328.410736 
z"/>
<path fill="#ECDEB8" opacity="1.000000" stroke="none" 
	d="
M419.076477,160.378174 
	C420.700134,159.998734 422.505646,159.979645 424.763794,159.986023 
	C423.445587,162.017380 421.275543,160.751648 419.076477,160.378174 
z"/>
<path fill="#F1E4C6" opacity="1.000000" stroke="none" 
	d="
M461.370422,134.943085 
	C460.994629,133.321365 460.972748,131.504288 460.975281,129.231339 
	C462.978546,130.555435 461.752319,132.724274 461.370422,134.943085 
z"/>
<path fill="#E1CCA4" opacity="1.000000" stroke="none" 
	d="
M323.365479,331.891632 
	C324.419403,330.777039 325.747162,330.530701 326.961487,332.530579 
	C325.680389,333.526459 324.922058,331.909424 323.365479,331.891632 
z"/>
<path fill="#ECDEB8" opacity="1.000000" stroke="none" 
	d="
M8.099345,319.415100 
	C9.391148,320.275055 8.911589,321.850555 8.979893,323.702454 
	C7.131660,322.994904 8.342875,321.232697 8.099345,319.415100 
z"/>
<path fill="#FAF0D6" opacity="1.000000" stroke="none" 
	d="
M368.361023,12.979481 
	C368.113312,11.638531 368.236481,10.141398 368.587158,8.350295 
	C368.787079,9.645315 368.759491,11.234306 368.361023,12.979481 
z"/>
<path fill="#E1CCA4" opacity="1.000000" stroke="none" 
	d="
M110.924232,389.387512 
	C112.409317,389.094818 112.980629,389.999603 112.982422,391.780090 
	C112.035011,391.568329 110.958427,391.097076 110.924232,389.387512 
z"/>
<path fill="#F1E4C6" opacity="1.000000" stroke="none" 
	d="
M90.410858,387.896667 
	C91.279053,386.584900 92.883881,387.114960 94.750839,387.010223 
	C94.035812,388.912170 92.244720,387.622803 90.410858,387.896667 
z"/>
<path fill="#E1CCA4" opacity="1.000000" stroke="none" 
	d="
M209.348541,363.033630 
	C209.037949,361.931030 208.876053,360.632660 210.806885,360.117004 
	C211.224152,361.327179 210.541168,362.173340 209.348541,363.033630 
z"/>
<path fill="#E1CCA4" opacity="1.000000" stroke="none" 
	d="
M410.923035,346.615662 
	C409.582550,345.651062 409.895233,344.109985 410.604370,342.293213 
	C410.883118,343.424774 410.940735,344.813812 410.923035,346.615662 
z"/>
<path fill="#FAF0D6" opacity="1.000000" stroke="none" 
	d="
M259.414185,328.904480 
	C260.265900,327.608978 261.875610,328.132477 263.726807,327.968414 
	C263.069702,330.013641 261.231140,328.575500 259.414185,328.904480 
z"/>
<path fill="#F1E4C6" opacity="1.000000" stroke="none" 
	d="
M96.400650,386.881409 
	C96.851746,386.551056 97.651657,386.280609 98.781830,386.001495 
	C98.696220,387.234772 97.649826,386.906158 96.400650,386.881409 
z"/>
<path fill="#F1E4C6" opacity="1.000000" stroke="none" 
	d="
M72.595428,236.117065 
	C72.137009,236.487366 71.327126,236.784409 70.190865,236.997086 
	C70.286407,235.606461 71.343811,236.040451 72.595428,236.117065 
z"/>
<path fill="#E6D3A7" opacity="1.000000" stroke="none" 
	d="
M364.991455,163.577240 
	C364.245483,163.753174 363.353638,163.598740 362.237366,163.179382 
	C362.957153,163.025253 363.901337,163.136047 364.991455,163.577240 
z"/>
<path fill="#E6D3A7" opacity="1.000000" stroke="none" 
	d="
M290.924500,76.685738 
	C290.579376,76.493523 290.311188,75.977654 290.061798,75.158661 
	C290.843018,75.079346 291.063965,75.634064 290.924500,76.685738 
z"/>
<path fill="#EBDBB0" opacity="1.000000" stroke="none" 
	d="
M216.391754,478.026733 
	C216.251770,477.564362 216.410461,476.964813 216.839325,476.185425 
	C216.969803,476.633575 216.830109,477.261566 216.391754,478.026733 
z"/>
<path fill="#E6D3A7" opacity="1.000000" stroke="none" 
	d="
M166.927612,476.343506 
	C167.236786,476.512573 167.592041,477.005280 167.933060,477.819977 
	C167.173264,477.926239 166.941940,477.380981 166.927612,476.343506 
z"/>
<path fill="#ECDEB8" opacity="1.000000" stroke="none" 
	d="
M317.886475,134.658157 
	C317.548676,134.473389 317.284424,133.971069 317.036407,133.175430 
	C317.807129,133.087082 318.034210,133.620117 317.886475,134.658157 
z"/>
<path fill="#ECDEB8" opacity="1.000000" stroke="none" 
	d="
M317.066193,132.676208 
	C316.755035,132.509384 316.386841,132.008270 316.017151,131.180542 
	C316.814301,131.037842 317.070404,131.583939 317.066193,132.676208 
z"/>
<path fill="#E6D3A7" opacity="1.000000" stroke="none" 
	d="
M337.951477,337.327850 
	C338.394775,337.143463 338.975433,337.265656 339.771729,337.600220 
	C339.354523,337.753235 338.721680,337.693848 337.951477,337.327850 
z"/>
<path fill="#EBDBB0" opacity="1.000000" stroke="none" 
	d="
M273.028137,43.608185 
	C272.601074,43.799156 272.030457,43.700363 271.251587,43.390511 
	C271.657074,43.225777 272.270844,43.272099 273.028137,43.608185 
z"/>
<path fill="#EBDBB0" opacity="1.000000" stroke="none" 
	d="
M214.311462,480.837097 
	C214.207596,480.320068 214.425858,479.802338 214.903152,479.148010 
	C214.985992,479.619781 214.809784,480.228058 214.311462,480.837097 
z"/>
<path fill="#E6D3A7" opacity="1.000000" stroke="none" 
	d="
M288.911346,72.657532 
	C288.562500,72.459366 288.291138,71.930901 288.025208,71.093460 
	C288.773407,71.035759 289.090271,71.551598 288.911346,72.657532 
z"/>
<path fill="#EBDBB0" opacity="1.000000" stroke="none" 
	d="
M282.913177,59.688042 
	C282.564148,59.496128 282.287628,58.978939 282.046814,58.158875 
	C282.851837,58.077599 283.065460,58.632240 282.913177,59.688042 
z"/>
<path fill="#EBDBB0" opacity="1.000000" stroke="none" 
	d="
M192.327667,376.077423 
	C192.514084,375.775330 193.034668,375.407074 193.891357,375.030334 
	C193.955307,375.746796 193.427307,376.066895 192.327667,376.077423 
z"/>
<path fill="#ECDEB8" opacity="1.000000" stroke="none" 
	d="
M235.606842,46.975807 
	C235.731445,47.429489 235.560013,48.025684 235.121613,48.809509 
	C235.006683,48.370865 235.158737,47.744591 235.606842,46.975807 
z"/>
<path fill="#EBDBB0" opacity="1.000000" stroke="none" 
	d="
M275.077301,46.669662 
	C274.778656,46.488289 274.412445,45.985229 274.073181,45.155319 
	C274.829041,45.080128 275.058960,45.630497 275.077301,46.669662 
z"/>
<path fill="#E6D3A7" opacity="1.000000" stroke="none" 
	d="
M116.888092,399.353882 
	C117.192619,399.452301 117.579338,399.866821 118.001266,400.578369 
	C117.133400,400.958038 117.014641,400.346924 116.888092,399.353882 
z"/>
<path fill="#EBDBB0" opacity="1.000000" stroke="none" 
	d="
M57.683029,242.914215 
	C57.509453,243.194550 57.024632,243.554764 56.220314,243.940033 
	C56.391144,243.641449 56.881466,243.317780 57.683029,242.914215 
z"/>
<path fill="#EBDBB0" opacity="1.000000" stroke="none" 
	d="
M59.692635,242.080139 
	C59.500778,242.430420 58.982349,242.710175 58.159348,242.954086 
	C58.069645,242.134872 58.628826,241.924164 59.692635,242.080139 
z"/>
<path fill="#ECDEB8" opacity="1.000000" stroke="none" 
	d="
M236.677765,45.910645 
	C236.760300,46.144863 236.575455,46.477142 236.101685,46.878387 
	C236.011948,46.634472 236.211166,46.321587 236.677765,45.910645 
z"/>
<path fill="#ECDEB8" opacity="1.000000" stroke="none" 
	d="
M237.705078,44.934284 
	C237.776566,45.157135 237.574783,45.466778 237.106842,45.872314 
	C237.037735,45.652500 237.234772,45.336784 237.705078,44.934284 
z"/>
<path fill="#E1CCA4" opacity="1.000000" stroke="none" 
	d="
M109.928635,388.293945 
	C110.122910,388.232544 110.425735,388.433044 110.855576,388.879517 
	C110.667458,388.935577 110.352310,388.745697 109.928635,388.293945 
z"/>
<path fill="#EBDBB0" opacity="1.000000" stroke="none" 
	d="
M274.090454,44.682930 
	C273.873108,44.751400 273.554962,44.553265 273.146851,44.079449 
	C273.367798,44.007954 273.678711,44.212139 274.090454,44.682930 
z"/>
<path fill="#E1CCA4" opacity="1.000000" stroke="none" 
	d="
M113.074890,393.261688 
	C113.350967,393.206116 113.582542,393.437103 113.895012,393.904938 
	C113.660728,393.943939 113.345558,393.746094 113.074890,393.261688 
z"/>
<path fill="#E1CCA4" opacity="1.000000" stroke="none" 
	d="
M107.235207,385.929443 
	C106.985947,385.853516 106.997208,385.429840 106.992111,385.218018 
	C107.250832,385.226379 107.514648,385.446564 107.881714,385.908630 
	C107.818138,386.102112 107.651299,386.053711 107.235207,385.929443 
z"/>
<path fill="#E1CCA4" opacity="1.000000" stroke="none" 
	d="
M116.042763,398.240448 
	C116.328125,398.190002 116.566391,398.429749 116.867905,398.921783 
	C116.619324,398.959595 116.307495,398.745117 116.042763,398.240448 
z"/>
<path fill="#EBDBB0" opacity="1.000000" stroke="none" 
	d="
M282.049255,57.715286 
	C281.851166,57.772915 281.556061,57.563377 281.137543,57.107006 
	C281.326813,57.056152 281.639526,57.252136 282.049255,57.715286 
z"/>
<path fill="#E6D3A7" opacity="1.000000" stroke="none" 
	d="
M168.958084,479.281799 
	C169.151917,479.225372 169.438980,479.432861 169.851273,479.878113 
	C169.668091,479.925812 169.359695,479.735748 168.958084,479.281799 
z"/>
<path fill="#EBDBB0" opacity="1.000000" stroke="none" 
	d="
M215.290573,479.056335 
	C215.231659,478.844025 215.443710,478.542084 215.919159,478.137787 
	C215.975540,478.345856 215.768539,478.656281 215.290573,479.056335 
z"/>
<path fill="#E6D3A7" opacity="1.000000" stroke="none" 
	d="
M167.940506,478.298828 
	C168.145111,478.233734 168.446213,478.434723 168.862305,478.887268 
	C168.663864,478.947510 168.350433,478.756195 167.940506,478.298828 
z"/>
<path fill="#F1E4C6" opacity="1.000000" stroke="none" 
	d="
M240.806793,42.058731 
	C240.874313,42.390472 240.647583,42.652813 240.153412,42.933403 
	C240.094833,42.630875 240.303696,42.310104 240.806793,42.058731 
z"/>
<path fill="#F1E4C6" opacity="1.000000" stroke="none" 
	d="
M239.701843,42.975502 
	C239.793137,43.219307 239.610611,43.526150 239.159943,43.907257 
	C239.070557,43.667194 239.249298,43.352871 239.701843,42.975502 
z"/>
<path fill="#E1CCA4" opacity="1.000000" stroke="none" 
	d="
M208.868988,425.729370 
	C208.551071,425.838867 208.337784,425.609192 208.111786,425.088104 
	C208.315536,425.064209 208.607040,425.262024 208.868988,425.729370 
z"/>
<path fill="#F1E4C6" opacity="1.000000" stroke="none" 
	d="
M238.722992,43.986816 
	C238.782425,44.198006 238.569672,44.485039 238.105164,44.882576 
	C238.052551,44.682938 238.251694,44.372799 238.722992,43.986816 
z"/>
<path fill="#E1CCA4" opacity="1.000000" stroke="none" 
	d="
M204.931244,416.748383 
	C204.653381,416.793518 204.418777,416.545868 204.106903,416.048218 
	C204.344604,416.017365 204.659546,416.236481 204.931244,416.748383 
z"/>
<path fill="#E6D3A7" opacity="1.000000" stroke="none" 
	d="
M335.930176,336.285858 
	C336.127197,336.163086 336.433319,336.307343 336.889832,336.658386 
	C336.706604,336.761078 336.372955,336.656982 335.930176,336.285858 
z"/>
<path fill="#E1CCA4" opacity="1.000000" stroke="none" 
	d="
M333.930908,335.309601 
	C334.147034,335.172455 334.460236,335.317261 334.921631,335.678192 
	C334.722565,335.793427 334.375275,335.692474 333.930908,335.309601 
z"/>
<path fill="#E6D3A7" opacity="1.000000" stroke="none" 
	d="
M382.064117,270.700928 
	C381.875854,270.758820 381.576233,270.559723 381.149841,270.118622 
	C381.332947,270.065735 381.642853,270.254822 382.064117,270.700928 
z"/>
<path fill="#EBDBB0" opacity="1.000000" stroke="none" 
	d="
M55.734589,243.950531 
	C55.736847,244.075165 55.487206,244.254974 55.114113,244.297546 
	C55.154671,244.108780 55.318680,244.057236 55.734589,243.950531 
z"/>
<path fill="#E6D3A7" opacity="1.000000" stroke="none" 
	d="
M365.889587,164.753265 
	C365.526611,164.875443 365.310333,164.638458 365.119202,164.081436 
	C365.350067,164.055893 365.647369,164.266800 365.889587,164.753265 
z"/>
<path fill="#EBDBB0" opacity="1.000000" stroke="none" 
	d="
M191.244583,376.903564 
	C191.100143,376.537079 191.333618,376.311432 191.900421,376.106628 
	C191.933472,376.333282 191.729721,376.638947 191.244583,376.903564 
z"/>
<path fill="#E6D3A7" opacity="1.000000" stroke="none" 
	d="
M290.062012,74.702362 
	C289.869263,74.761375 289.567780,74.560211 289.142517,74.112823 
	C289.330261,74.058456 289.641754,74.250320 290.062012,74.702362 
z"/>
<path fill="#F1E4C6" opacity="1.000000" stroke="none" 
	d="
M359.938721,351.274902 
	C360.117035,351.251709 360.415710,351.499847 360.851624,352.010254 
	C360.678955,352.030426 360.369019,351.788330 359.938721,351.274902 
z"/>
<path fill="#F1E4C6" opacity="1.000000" stroke="none" 
	d="
M361.828613,353.271698 
	C362.062347,353.169769 362.438751,353.332611 362.895203,353.796082 
	C362.640625,353.909943 362.305939,353.723236 361.828613,353.271698 
z"/>
<path fill="#F1E4C6" opacity="1.000000" stroke="none" 
	d="
M362.970398,354.299286 
	C363.215393,354.222168 363.520020,354.422333 363.893158,354.900452 
	C363.651154,354.977783 363.340607,354.777191 362.970398,354.299286 
z"/>
<path fill="#F1E4C6" opacity="1.000000" stroke="none" 
	d="
M363.931396,355.295746 
	C364.137299,355.166412 364.442139,355.298920 364.869385,355.650818 
	C364.671326,355.765991 364.350800,355.661774 363.931396,355.295746 
z"/>
<path fill="#E6D3A7" opacity="1.000000" stroke="none" 
	d="
M287.947937,69.770691 
	C287.659973,69.819702 287.414154,69.567436 287.095459,69.053772 
	C287.345093,69.018059 287.667572,69.243736 287.947937,69.770691 
z"/>
<path fill="#E6D3A7" opacity="1.000000" stroke="none" 
	d="
M286.907776,67.776337 
	C286.639160,67.817039 286.411407,67.566803 286.099548,67.071838 
	C286.326508,67.046547 286.637604,67.265976 286.907776,67.776337 
z"/>
<path fill="#E6D3A7" opacity="1.000000" stroke="none" 
	d="
M285.882874,65.750458 
	C285.556061,65.869446 285.341370,65.639450 285.114166,65.113647 
	C285.319092,65.087395 285.616852,65.281937 285.882874,65.750458 
z"/>
<path fill="#E1CCA4" opacity="1.000000" stroke="none" 
	d="
M203.308380,369.072754 
	C203.243225,368.859711 203.449692,368.559937 203.913193,368.151489 
	C203.973465,368.357208 203.776733,368.671600 203.308380,369.072754 
z"/>
<path fill="#F1E4C6" opacity="1.000000" stroke="none" 
	d="
M69.724380,236.983673 
	C69.790520,237.192261 69.588905,237.470810 69.149261,237.861115 
	C69.093025,237.666458 69.274826,237.360046 69.724380,236.983673 
z"/>
<path fill="#000000" opacity="1.000000" stroke="none" 
	d="
M268.818573,75.959427 
	C269.305328,76.671028 269.624786,77.073425 270.048157,77.720032 
	C270.481232,78.489944 270.479828,79.116943 270.826599,79.945511 
	C270.974579,80.208427 270.960907,80.582672 271.023438,80.759171 
	C271.264038,81.217255 271.467865,81.478798 271.819366,81.937408 
	C271.941376,82.154518 271.958588,82.026024 271.893860,82.022629 
	C272.435791,82.395607 272.478149,83.059250 272.816772,83.927567 
	C272.973297,84.203377 272.959198,84.577408 273.020966,84.754074 
	C273.283905,85.216179 273.489929,85.498055 273.834717,86.001511 
	C273.968658,86.226570 273.968109,86.589142 274.036682,86.756943 
	C274.286194,87.211319 274.481750,87.487579 274.836121,87.962723 
	C274.982178,88.170563 275.006287,88.581932 275.082275,88.773438 
	C275.303314,89.245842 275.479736,89.505417 275.837616,89.925621 
	C275.987671,90.107574 276.034363,90.579575 276.125427,90.798561 
	C276.347015,91.191467 276.477539,91.365387 276.799377,91.803650 
	C277.936584,93.056839 278.034943,94.441223 278.805908,95.869537 
	C279.696655,102.089935 283.623230,106.696541 285.710846,112.094376 
	C288.706085,119.839218 292.689484,127.201897 296.581909,134.871216 
	C297.771301,135.723755 297.339111,136.796356 297.829590,137.968597 
	C301.002838,144.883743 303.980591,151.498627 307.032990,158.078888 
	C307.424744,158.923401 308.204346,159.587982 308.976501,160.658127 
	C309.478546,161.480057 309.477356,162.084656 309.795471,162.889725 
	C309.920288,163.151810 309.946136,163.020065 309.879395,163.013092 
	C310.416565,163.379700 310.478180,164.032608 310.810181,164.901321 
	C314.244354,172.218857 317.517090,179.264481 320.958557,186.636047 
	C321.468323,187.455872 321.478088,188.055893 321.785706,188.860596 
	C321.918457,189.118164 321.974670,189.063599 321.945374,189.037598 
	C322.195221,189.218842 322.447479,189.454865 322.839600,189.919006 
	C326.590942,199.911789 331.429077,209.138702 335.822571,218.568359 
	C344.728943,237.684113 353.439697,256.891785 362.450653,275.957794 
	C371.049042,294.150940 380.139465,312.114777 388.506348,330.411377 
	C390.235382,334.192352 393.682556,338.198456 391.127075,343.487183 
	C389.075806,345.099182 386.948456,344.257782 384.494019,344.338257 
	C380.896362,344.043579 378.804749,342.109100 376.550354,340.103119 
	C364.164062,329.081818 350.511047,320.392365 334.278168,315.813660 
	C325.482300,313.332642 316.784760,311.132019 307.627808,310.954956 
	C306.715485,310.937317 305.814178,310.351715 304.490845,309.988373 
	C302.364197,309.019104 300.500977,309.735779 298.371277,309.299500 
	C297.290192,309.102966 296.569214,309.055481 295.485260,309.006897 
	C291.068726,307.829315 286.917328,308.839600 282.402344,308.330780 
	C281.544159,308.140198 281.111938,308.074524 280.359924,308.095215 
	C275.923340,308.890778 271.767212,308.256927 267.257996,308.774902 
	C266.147919,309.008972 265.417908,309.012970 264.331482,309.095581 
	C261.878876,309.854370 259.708221,309.280334 257.243927,309.761841 
	C243.186371,311.312378 229.653717,313.743683 216.370758,317.352936 
	C204.616241,320.546875 192.925552,324.018005 181.387085,329.095093 
	C180.504959,329.477234 179.909317,329.477997 179.114319,329.797913 
	C178.856400,329.923645 178.981110,329.949585 178.988525,329.886353 
	C178.623230,330.406067 177.991028,330.478149 177.139282,330.798584 
	C175.204163,331.501617 173.220871,331.637756 171.912033,332.647858 
	C166.800156,336.592773 164.823441,333.522125 162.972992,329.175232 
	C158.123566,317.783539 152.820679,306.600372 146.958893,295.273346 
	C146.345078,294.110382 146.633270,293.146362 146.153778,291.996399 
	C145.993454,291.697693 146.057602,291.422913 145.986557,291.301025 
	C145.759476,290.861176 145.561600,290.571381 145.186096,290.082428 
	C145.044357,289.859161 144.991196,289.949585 145.036636,289.975769 
	C144.813385,289.792999 144.567581,289.559937 144.181183,289.107483 
	C142.857925,285.941254 141.889526,282.877747 140.505051,280.015442 
	C134.781982,268.183502 128.932922,256.412537 122.970543,244.286652 
	C122.340805,243.123749 122.637512,242.150162 122.154587,240.989838 
	C121.995346,240.687271 122.065002,240.420380 121.993858,240.302216 
	C121.746178,239.853607 121.544464,239.539474 121.163620,239.007111 
	C120.727722,236.462082 123.063179,236.447159 124.144508,235.638947 
	C128.856308,232.117249 133.855194,228.979660 138.882477,225.380280 
	C139.431595,224.559784 140.054626,224.520935 140.882416,224.208313 
	C141.151352,224.077301 141.038086,224.058304 141.036057,224.115692 
	C141.203979,223.852112 141.425217,223.570816 141.912476,223.168884 
	C142.134003,223.013824 142.012466,223.012421 142.013672,223.073181 
	C142.204529,222.833405 142.435013,222.568375 142.913406,222.173401 
	C156.657440,214.218201 169.206284,205.022156 181.625305,195.031158 
	C182.235077,194.720627 182.494781,194.524689 182.941315,194.173767 
	C183.154327,194.053513 183.039993,194.036194 183.037109,194.093933 
	C183.211044,193.841324 183.430603,193.564896 183.912155,193.171173 
	C184.131439,193.019943 184.022507,192.998718 184.013153,193.053421 
	C184.205704,192.821777 184.440277,192.565308 184.913696,192.177460 
	C187.873749,192.720657 187.486221,188.870834 189.873566,188.521973 
	C190.208588,187.894119 190.427734,187.601181 190.900589,187.169464 
	C191.122269,187.006500 191.006226,187.004639 191.006134,187.062668 
	C191.209015,186.829254 191.438095,186.560257 191.914215,186.163605 
	C192.130981,186.009857 192.002136,186.014130 192.005493,186.078506 
	C192.368805,185.624313 192.940338,185.524551 193.680939,185.173294 
	C194.064163,184.656662 194.261749,184.358765 194.718857,183.971161 
	C195.253021,183.709564 195.506454,183.510651 195.953735,183.173630 
	C196.168808,183.062576 196.043472,183.050735 196.044815,183.113663 
	C196.210358,182.850967 196.427505,182.565643 196.930084,182.180740 
	C197.162521,182.040833 197.036469,182.034485 197.038757,182.097549 
	C197.214020,181.835922 197.443604,181.557983 197.957703,181.176041 
	C202.388519,176.922134 206.591385,172.818954 210.903656,168.401672 
	C211.440216,167.614944 211.490616,166.985870 211.929001,166.219971 
	C224.112869,154.629089 232.158569,140.628418 238.967087,125.811333 
	C242.759003,117.559120 245.399445,108.899300 247.379745,100.071342 
	C248.337631,95.801201 248.487946,91.349915 249.000458,86.547340 
	C250.145584,78.065536 249.167130,69.968643 249.691208,61.457043 
	C255.606110,54.826736 260.278809,55.958416 263.796814,64.909607 
	C264.850128,67.589592 266.361786,70.021851 267.615326,72.873672 
	C268.755585,73.741707 268.346252,74.791588 268.818573,75.959427 
z"/>
<path fill="#000000" opacity="1.000000" stroke="none" 
	d="
M26.691116,311.442596 
	C26.833654,311.027222 26.990507,310.597473 26.991169,310.368774 
	C28.038540,308.429382 27.240673,306.528351 27.687466,304.370911 
	C31.698143,285.746735 42.657539,273.133820 58.906143,264.591217 
	C72.148956,257.628876 85.690018,251.298874 99.183937,244.855316 
	C103.169342,242.952240 103.354599,246.793732 103.721695,247.812195 
	C105.970085,254.050064 109.170700,259.818512 111.929794,265.795441 
	C116.762535,276.264496 121.717331,286.677216 126.574692,297.135010 
	C127.247139,298.582733 127.655785,300.152985 128.505661,301.846802 
	C129.138367,302.220093 129.419983,302.451996 129.816986,302.954895 
	C129.964432,303.186981 129.982681,303.608887 130.059082,303.805725 
	C130.272415,304.191040 130.409317,304.379456 130.760101,304.844177 
	C132.390518,311.634674 136.287827,317.087677 138.764679,323.159485 
	C141.414185,329.654510 144.786118,335.865448 148.038452,342.098297 
	C149.200958,344.326141 147.693893,345.206604 146.415543,345.771240 
	C136.280197,350.248444 126.118324,354.671936 115.880241,358.908020 
	C109.217613,361.664734 102.455551,364.198334 95.656845,366.602264 
	C91.853867,367.946930 87.922455,369.009155 83.388412,369.097137 
	C81.619057,369.723206 80.217133,369.429565 78.441216,369.319336 
	C66.840363,368.844635 56.518196,365.311768 48.017509,358.290894 
	C36.889980,349.100403 29.874720,337.113037 27.995499,322.489197 
	C27.833651,321.229736 27.338434,320.013092 26.912998,318.367126 
	C26.205671,315.948700 26.605850,313.892853 26.691116,311.442596 
z"/>
<path fill="#000000" opacity="1.000000" stroke="none" 
	d="
M138.989746,370.153198 
	C139.247910,370.016113 139.563293,370.054230 139.705261,369.983002 
	C140.168900,369.733002 140.475647,369.531677 140.994614,369.151520 
	C144.135925,367.680389 147.095734,366.457581 149.950363,365.025177 
	C157.094772,361.440125 157.868530,361.326111 160.750275,368.653290 
	C165.996689,381.992859 172.843002,394.581818 178.400070,407.773254 
	C182.067108,416.478119 186.644043,424.799683 190.971802,433.617920 
	C191.304810,434.229889 191.494247,434.506683 191.838959,434.982239 
	C191.977234,435.192688 191.989990,435.585968 192.066574,435.767181 
	C192.299164,436.237793 192.483017,436.508301 192.837799,436.959534 
	C194.373215,443.478516 198.002747,448.867737 200.416672,454.766571 
	C203.471329,462.231171 202.081528,466.751770 194.314728,470.014709 
	C192.304916,470.772491 190.575836,470.404510 188.461105,470.322784 
	C182.041534,467.036804 179.597168,460.909546 175.935715,455.383514 
	C175.710541,454.749359 175.518784,454.498322 175.161896,454.075256 
	C175.031479,453.876678 175.040924,453.968262 175.085846,453.958191 
	C174.159607,453.363434 173.839966,452.324921 173.186340,451.134705 
	C163.413605,435.804352 153.810806,420.739990 144.053223,405.359528 
	C143.725296,404.767517 143.525467,404.512543 143.171295,404.071289 
	C143.043625,403.864136 143.031586,403.972351 143.086014,403.973877 
	C142.840469,403.791290 142.568375,403.572937 142.170761,403.104614 
	C142.013077,402.894226 142.010834,402.996185 142.061829,402.996185 
	C141.579315,402.600403 141.522232,401.976379 141.208542,401.140320 
	C141.065613,400.873810 141.049591,400.979218 141.102844,400.981628 
	C140.582047,400.611420 140.523071,399.977631 140.224152,399.121948 
	C140.095215,398.843719 140.075211,398.947876 140.128235,398.948029 
	C139.853607,398.791077 139.569977,398.575073 139.177856,398.081299 
	C139.031204,397.854675 139.023804,397.973999 139.083572,397.973907 
	C138.835907,397.791534 138.565552,397.565643 138.182617,397.072998 
	C134.863937,391.579071 132.190964,385.910370 128.388397,381.142609 
	C125.152733,377.085632 126.883003,375.715088 130.661774,374.029541 
	C131.472382,373.521606 132.072601,373.522858 132.870270,373.211609 
	C133.127869,373.083099 133.068054,373.022949 133.039948,373.054718 
	C133.212402,372.810760 133.444107,372.563934 133.902832,372.184387 
	C135.042282,372.092712 135.875488,371.897888 136.759003,370.938232 
	C137.582291,370.506958 138.194077,370.518585 138.989746,370.153198 
z"/>
<path fill="#000000" opacity="1.000000" stroke="none" 
	d="
M345.521942,176.673340 
	C346.983215,176.868057 348.038483,176.934052 349.491577,177.013260 
	C351.191681,177.796082 352.622284,178.384567 353.777313,179.899872 
	C359.951538,189.489792 360.816437,190.910889 353.366211,200.968750 
	C352.758942,201.283554 352.498505,201.481323 352.044556,201.824371 
	C351.825653,201.936234 351.951233,201.964676 351.959351,201.900818 
	C351.790894,202.163681 351.556641,202.440582 351.030304,202.818268 
	C350.459381,202.953018 350.210388,202.786026 349.962585,202.261658 
	C349.700531,201.760056 349.511047,201.487946 349.155579,201.028061 
	C349.012115,200.824615 349.016693,200.417786 348.951660,200.225037 
	C348.703674,199.760010 348.509735,199.495758 348.163025,199.038696 
	C344.931305,193.507004 343.479034,187.401520 340.095276,182.194717 
	C339.151184,180.741898 338.417236,179.020660 339.703644,176.990662 
	C341.712860,176.256226 343.423767,176.583939 345.521942,176.673340 
z"/>
<path fill="#000000" opacity="1.000000" stroke="none" 
	d="
M190.091064,355.802612 
	C187.073593,357.032562 184.142441,357.857544 181.510529,359.248718 
	C178.823303,360.669098 177.618591,359.797363 176.742844,357.290131 
	C176.015518,355.207764 174.445129,353.250122 178.013336,351.940826 
	C181.244263,350.755310 184.184525,348.800171 187.330093,347.351898 
	C189.546463,346.331421 191.128464,346.830109 191.474457,349.839935 
	C192.991837,351.584869 192.760559,353.092682 191.210388,354.735657 
	C190.829575,354.917542 190.957520,354.957916 190.971680,354.892334 
	C190.811981,355.142761 190.583923,355.413910 190.091064,355.802612 
z"/>
<path fill="#FAF0D6" opacity="1.000000" stroke="none" 
	d="
M249.569672,61.332184 
	C249.825714,69.251183 249.816925,77.490959 249.402573,85.922379 
	C249.099625,77.960342 249.202225,69.806648 249.569672,61.332184 
z"/>
<path fill="#FAF0D6" opacity="1.000000" stroke="none" 
	d="
M267.345703,309.025360 
	C270.807129,306.807861 275.047729,308.533264 279.575928,308.107635 
	C276.067017,309.919403 271.878113,308.603607 267.345703,309.025360 
z"/>
<path fill="#FAF0D6" opacity="1.000000" stroke="none" 
	d="
M282.327209,308.423950 
	C286.231689,308.204193 290.487030,308.202545 294.932312,308.603333 
	C290.974976,308.856812 286.805908,309.453857 282.327209,308.423950 
z"/>
<path fill="#E1CCA4" opacity="1.000000" stroke="none" 
	d="
M278.990417,95.765976 
	C277.202606,95.661064 277.154633,93.802345 276.213257,92.327492 
	C276.533478,91.648331 276.923615,91.516304 277.634094,91.781296 
	C279.129333,92.836868 278.964386,94.144295 278.990417,95.765976 
z"/>
<path fill="#E1CCA4" opacity="1.000000" stroke="none" 
	d="
M353.940643,179.788757 
	C352.121674,180.207275 351.283447,178.700241 350.016022,177.341705 
	C351.733490,176.975906 353.416901,177.195007 353.940643,179.788757 
z"/>
<path fill="#EBDBB0" opacity="1.000000" stroke="none" 
	d="
M257.317139,309.982605 
	C258.713531,307.901733 261.077087,309.461456 263.556519,309.099426 
	C262.053589,310.655090 259.823242,309.787598 257.317139,309.982605 
z"/>
<path fill="#ECDEB8" opacity="1.000000" stroke="none" 
	d="
M26.598230,311.309540 
	C26.880301,313.051758 26.926947,315.076324 26.900753,317.529297 
	C25.460814,315.924316 25.913267,313.757965 26.598230,311.309540 
z"/>
<path fill="#FAF0D6" opacity="1.000000" stroke="none" 
	d="
M384.370300,344.427551 
	C386.086151,344.143585 388.110077,344.069733 390.563599,343.922882 
	C389.121582,345.982574 386.855591,344.954498 384.370300,344.427551 
z"/>
<path fill="#FAF0D6" opacity="1.000000" stroke="none" 
	d="
M27.579031,304.301758 
	C27.801506,305.933624 27.777002,307.866882 27.372164,309.970093 
	C27.105238,308.294434 27.218643,306.448792 27.579031,304.301758 
z"/>
<path fill="#E1CCA4" opacity="1.000000" stroke="none" 
	d="
M345.657440,176.583252 
	C344.245880,176.847946 342.563782,176.893845 340.464172,176.871689 
	C341.742920,175.637863 343.552216,175.846924 345.657440,176.583252 
z"/>
<path fill="#ECDEB8" opacity="1.000000" stroke="none" 
	d="
M298.305573,309.398926 
	C299.909302,309.175903 301.807465,309.201355 303.889771,309.586945 
	C302.249298,309.847168 300.424652,309.747284 298.305573,309.398926 
z"/>
<path fill="#ECDEB8" opacity="1.000000" stroke="none" 
	d="
M188.325775,470.414001 
	C189.747971,470.130524 191.444122,470.069885 193.559555,470.087311 
	C192.292419,471.539001 190.448822,471.119232 188.325775,470.414001 
z"/>
<path fill="#F1E4C6" opacity="1.000000" stroke="none" 
	d="
M191.202637,354.906311 
	C191.962708,353.736298 192.150101,352.288513 191.911469,350.376953 
	C193.483383,351.722870 193.731293,353.368561 191.202637,354.906311 
z"/>
<path fill="#E6D3A7" opacity="1.000000" stroke="none" 
	d="
M173.013901,451.235413 
	C173.997711,451.410980 175.031204,451.909851 175.074554,453.613159 
	C173.611328,453.900543 173.031433,453.004181 173.013901,451.235413 
z"/>
<path fill="#E6D3A7" opacity="1.000000" stroke="none" 
	d="
M78.302277,369.399872 
	C79.414612,369.129822 80.783646,369.074158 82.557999,369.095062 
	C81.600563,370.367493 80.094452,370.136932 78.302277,369.399872 
z"/>
<path fill="#F1E4C6" opacity="1.000000" stroke="none" 
	d="
M145.948090,292.045837 
	C147.265778,292.170288 147.010193,293.225861 146.877594,294.571075 
	C146.503876,294.088348 146.203293,293.241150 145.948090,292.045837 
z"/>
<path fill="#F1E4C6" opacity="1.000000" stroke="none" 
	d="
M121.952019,241.039276 
	C123.246574,241.177032 123.033867,242.225494 122.886459,243.587173 
	C122.510178,243.099869 122.209435,242.245575 121.952019,241.039276 
z"/>
<path fill="#ECDEB8" opacity="1.000000" stroke="none" 
	d="
M269.033661,75.905022 
	C267.675201,75.816185 268.009705,74.724106 267.978821,73.389771 
	C268.850220,73.622871 269.058716,74.540359 269.033661,75.905022 
z"/>
<path fill="#F1E4C6" opacity="1.000000" stroke="none" 
	d="
M298.062988,137.911743 
	C296.715546,137.816772 296.988403,136.736649 296.958344,135.386536 
	C297.859344,135.597809 298.090332,136.523605 298.062988,137.911743 
z"/>
<path fill="#ECDEB8" opacity="1.000000" stroke="none" 
	d="
M310.964478,164.839615 
	C310.207458,164.955704 309.930603,164.415924 309.893188,163.335297 
	C310.194183,163.506073 310.575745,164.006042 310.964478,164.839615 
z"/>
<path fill="#ECDEB8" opacity="1.000000" stroke="none" 
	d="
M309.955200,162.845078 
	C309.168030,162.914551 308.942932,162.358368 309.074524,161.305786 
	C309.429199,161.499664 309.709656,162.018997 309.955200,162.845078 
z"/>
<path fill="#E6D3A7" opacity="1.000000" stroke="none" 
	d="
M277.755585,91.774796 
	C277.517181,91.991585 277.147705,91.989777 276.500031,91.991165 
	C276.181152,91.831795 276.140503,91.669228 276.158142,91.262100 
	C276.685822,91.197098 277.155182,91.376648 277.755585,91.774796 
z"/>
<path fill="#EBDBB0" opacity="1.000000" stroke="none" 
	d="
M179.157410,329.953430 
	C179.080170,329.159302 179.631638,328.940369 180.685822,329.097717 
	C180.492630,329.445282 179.975510,329.714233 179.157410,329.953430 
z"/>
<path fill="#EBDBB0" opacity="1.000000" stroke="none" 
	d="
M177.200806,330.948029 
	C177.081161,330.204895 177.634155,329.971710 178.673431,329.904053 
	C178.505310,330.192780 178.014648,330.562439 177.200806,330.948029 
z"/>
<path fill="#E6D3A7" opacity="1.000000" stroke="none" 
	d="
M272.966125,83.868149 
	C272.260559,83.942558 271.948608,83.417824 271.898132,82.347351 
	C272.205719,82.523804 272.582336,83.028358 272.966125,83.868149 
z"/>
<path fill="#E6D3A7" opacity="1.000000" stroke="none" 
	d="
M270.977905,79.893456 
	C270.250824,79.928200 269.951141,79.387764 270.079010,78.297012 
	C270.428467,78.502312 270.704834,79.040398 270.977905,79.893456 
z"/>
<path fill="#F1E4C6" opacity="1.000000" stroke="none" 
	d="
M138.942932,370.007172 
	C138.966415,370.702820 138.497543,371.083679 137.391403,370.880127 
	C137.590378,370.536560 138.114166,370.267395 138.942932,370.007172 
z"/>
<path fill="#F1E4C6" opacity="1.000000" stroke="none" 
	d="
M132.822174,373.015900 
	C132.929260,373.868561 132.368195,374.072235 131.314087,373.940613 
	C131.496887,373.564087 132.006683,373.256409 132.822174,373.015900 
z"/>
<path fill="#E1CCA4" opacity="1.000000" stroke="none" 
	d="
M140.079651,399.169250 
	C140.852158,399.058655 141.082169,399.608215 141.097839,400.657471 
	C140.792099,400.487640 140.428101,399.991211 140.079651,399.169250 
z"/>
<path fill="#E1CCA4" opacity="1.000000" stroke="none" 
	d="
M141.066467,401.192719 
	C141.805527,401.093658 142.029877,401.644318 142.062775,402.673035 
	C141.764328,402.501343 141.415817,402.006470 141.066467,401.192719 
z"/>
<path fill="#EBDBB0" opacity="1.000000" stroke="none" 
	d="
M140.836090,224.065506 
	C140.918411,224.812088 140.380295,225.045212 139.338806,225.020493 
	C139.517029,224.723236 140.018936,224.388474 140.836090,224.065506 
z"/>
<path fill="#F1E4C6" opacity="1.000000" stroke="none" 
	d="
M321.992584,188.810913 
	C321.103333,188.933441 320.921539,188.355988 321.059204,187.292313 
	C321.440460,187.475861 321.753571,187.989777 321.992584,188.810913 
z"/>
<path fill="#EBDBB0" opacity="1.000000" stroke="none" 
	d="
M193.571808,184.986267 
	C194.039734,185.945801 193.387878,186.019287 192.342133,186.084137 
	C192.431564,185.767914 192.854294,185.392929 193.571808,184.986267 
z"/>
<path fill="#E6D3A7" opacity="1.000000" stroke="none" 
	d="
M211.895493,166.191010 
	C211.969177,166.619415 211.783981,167.223206 211.305908,167.957291 
	C211.220901,167.513855 211.428757,166.940140 211.895493,166.191010 
z"/>
<path fill="#EBDBB0" opacity="1.000000" stroke="none" 
	d="
M141.882294,223.132935 
	C141.942169,223.327530 141.750336,223.641235 141.296265,224.063995 
	C141.232880,223.866074 141.431717,223.559052 141.882294,223.132935 
z"/>
<path fill="#EBDBB0" opacity="1.000000" stroke="none" 
	d="
M142.874710,222.128326 
	C142.931808,222.322876 142.743134,222.637772 142.284668,223.043304 
	C142.219559,222.838852 142.424255,222.543762 142.874710,222.128326 
z"/>
<path fill="#E1CCA4" opacity="1.000000" stroke="none" 
	d="
M138.146820,397.102234 
	C138.335907,397.052063 138.645004,397.247070 139.048721,397.707947 
	C138.851166,397.765015 138.558990,397.556213 138.146820,397.102234 
z"/>
<path fill="#E1CCA4" opacity="1.000000" stroke="none" 
	d="
M139.146652,398.107117 
	C139.342621,398.045471 139.654037,398.236267 140.073364,398.687622 
	C139.874878,398.751984 139.568497,398.555786 139.146652,398.107117 
z"/>
<path fill="#EBDBB0" opacity="1.000000" stroke="none" 
	d="
M351.072632,202.871948 
	C351.010101,202.660614 351.215576,202.344757 351.694275,201.932922 
	C351.758545,202.147125 351.549561,202.457291 351.072632,202.871948 
z"/>
<path fill="#EBDBB0" opacity="1.000000" stroke="none" 
	d="
M352.081573,201.887970 
	C352.040375,201.626602 352.255127,201.316986 352.757294,201.063278 
	C352.808990,201.359375 352.573242,201.599548 352.081573,201.887970 
z"/>
<path fill="#E1CCA4" opacity="1.000000" stroke="none" 
	d="
M142.139587,403.131714 
	C142.320709,403.081848 142.628357,403.269470 143.038208,403.716248 
	C142.848984,403.773315 142.557541,403.571259 142.139587,403.131714 
z"/>
<path fill="#E6D3A7" opacity="1.000000" stroke="none" 
	d="
M175.110001,454.109802 
	C175.339401,454.072571 175.647324,454.268494 175.911407,454.745667 
	C175.548630,454.890839 175.322281,454.662872 175.110001,454.109802 
z"/>
<path fill="#EBDBB0" opacity="1.000000" stroke="none" 
	d="
M184.883484,192.141998 
	C184.925537,192.322754 184.731201,192.629349 184.270355,193.022034 
	C184.218246,192.828018 184.432693,192.547913 184.883484,192.141998 
z"/>
<path fill="#EBDBB0" opacity="1.000000" stroke="none" 
	d="
M183.871414,193.122620 
	C183.944092,193.334625 183.756744,193.649307 183.301819,194.057831 
	C183.226608,193.842880 183.418991,193.534088 183.871414,193.122620 
z"/>
<path fill="#EBDBB0" opacity="1.000000" stroke="none" 
	d="
M182.901276,194.106598 
	C182.944809,194.365570 182.735306,194.677628 182.237488,194.935791 
	C182.182205,194.641159 182.415222,194.400436 182.901276,194.106598 
z"/>
<path fill="#EBDBB0" opacity="1.000000" stroke="none" 
	d="
M349.095947,201.068359 
	C349.322083,201.039627 349.632050,201.254639 349.904785,201.758743 
	C349.638275,201.802582 349.408997,201.557343 349.095947,201.068359 
z"/>
<path fill="#EBDBB0" opacity="1.000000" stroke="none" 
	d="
M348.103088,199.081085 
	C348.337585,199.042587 348.654053,199.247269 348.928589,199.742111 
	C348.652771,199.796280 348.418915,199.560287 348.103088,199.081085 
z"/>
<path fill="#E6D3A7" opacity="1.000000" stroke="none" 
	d="
M192.893494,436.922607 
	C192.676056,436.945801 192.371246,436.732391 192.104797,436.233704 
	C192.364136,436.194275 192.585129,436.440155 192.893494,436.922607 
z"/>
<path fill="#E6D3A7" opacity="1.000000" stroke="none" 
	d="
M191.904129,434.941467 
	C191.662003,434.972046 191.346786,434.751404 191.080780,434.236877 
	C191.363678,434.192078 191.597351,434.441162 191.904129,434.941467 
z"/>
<path fill="#E1CCA4" opacity="1.000000" stroke="none" 
	d="
M143.115723,404.107239 
	C143.357880,404.064880 143.672119,404.265625 143.942398,404.754913 
	C143.661560,404.812408 143.424683,404.581390 143.115723,404.107239 
z"/>
<path fill="#F1E4C6" opacity="1.000000" stroke="none" 
	d="
M133.855408,372.128479 
	C133.919098,372.334412 133.735382,372.642303 133.281769,373.018341 
	C133.210571,372.801147 133.409286,372.515778 133.855408,372.128479 
z"/>
<path fill="#E6D3A7" opacity="1.000000" stroke="none" 
	d="
M275.897522,89.883804 
	C275.683105,89.912621 275.378540,89.717667 275.116150,89.243828 
	C275.455414,89.121239 275.671753,89.352936 275.897522,89.883804 
z"/>
<path fill="#EBDBB0" opacity="1.000000" stroke="none" 
	d="
M190.872559,187.137543 
	C190.928314,187.326035 190.734360,187.645569 190.278671,188.086487 
	C190.218903,187.894775 190.420868,187.581680 190.872559,187.137543 
z"/>
<path fill="#E6D3A7" opacity="1.000000" stroke="none" 
	d="
M271.882751,81.898529 
	C271.625580,81.943924 271.309753,81.733322 271.039948,81.229202 
	C271.332001,81.171295 271.578033,81.406914 271.882751,81.898529 
z"/>
<path fill="#EBDBB0" opacity="1.000000" stroke="none" 
	d="
M191.889236,186.134369 
	C191.934616,186.319916 191.738251,186.629990 191.273956,187.030380 
	C191.219849,186.833420 191.433685,186.546143 191.889236,186.134369 
z"/>
<path fill="#E6D3A7" opacity="1.000000" stroke="none" 
	d="
M273.900635,85.959946 
	C273.645386,85.997246 273.322083,85.767921 273.040771,85.234665 
	C273.332703,85.184929 273.582642,85.439133 273.900635,85.959946 
z"/>
<path fill="#E6D3A7" opacity="1.000000" stroke="none" 
	d="
M274.904724,87.917801 
	C274.661804,87.954140 274.341461,87.737717 274.063171,87.223022 
	C274.345947,87.171516 274.586609,87.418282 274.904724,87.917801 
z"/>
<path fill="#F1E4C6" opacity="1.000000" stroke="none" 
	d="
M144.149338,289.136169 
	C144.320969,289.098938 144.624283,289.285675 145.004822,289.737152 
	C144.815063,289.787994 144.548035,289.574066 144.149338,289.136169 
z"/>
<path fill="#F1E4C6" opacity="1.000000" stroke="none" 
	d="
M145.067352,290.146790 
	C145.367706,290.090820 145.691071,290.322510 145.964966,290.866638 
	C145.640457,290.930878 145.365402,290.682648 145.067352,290.146790 
z"/>
<path fill="#E6D3A7" opacity="1.000000" stroke="none" 
	d="
M195.923523,183.125000 
	C195.961044,183.370499 195.753265,183.678406 195.261932,183.933884 
	C195.211655,183.650101 195.444946,183.418762 195.923523,183.125000 
z"/>
<path fill="#E6D3A7" opacity="1.000000" stroke="none" 
	d="
M196.901413,182.144775 
	C196.967270,182.352524 196.772018,182.664230 196.311462,183.076263 
	C196.244217,182.867310 196.442261,182.558014 196.901413,182.144775 
z"/>
<path fill="#E1CCA4" opacity="1.000000" stroke="none" 
	d="
M129.851791,302.926300 
	C129.651489,302.980011 129.338547,302.773071 128.925186,302.296570 
	C129.129562,302.239899 129.434357,302.452759 129.851791,302.926300 
z"/>
<path fill="#E6D3A7" opacity="1.000000" stroke="none" 
	d="
M197.919907,181.128326 
	C197.987915,181.344421 197.790176,181.663544 197.316742,182.071625 
	C197.245422,181.850861 197.449799,181.541107 197.919907,181.128326 
z"/>
<path fill="#F1E4C6" opacity="1.000000" stroke="none" 
	d="
M190.115463,355.832581 
	C190.068100,355.650360 190.262802,355.341644 190.721680,354.929871 
	C190.776413,355.119904 190.566986,355.412994 190.115463,355.832581 
z"/>
<path fill="#F1E4C6" opacity="1.000000" stroke="none" 
	d="
M121.055550,239.069427 
	C121.346825,239.025040 121.680168,239.279999 121.968117,239.859512 
	C121.647682,239.912292 121.372650,239.640533 121.055550,239.069427 
z"/>
<path fill="#F1E4C6" opacity="1.000000" stroke="none" 
	d="
M140.935974,369.058167 
	C140.979065,369.336182 140.734116,369.673767 140.168213,369.961548 
	C140.114136,369.647095 140.381042,369.382385 140.935974,369.058167 
z"/>
<path fill="#E1CCA4" opacity="1.000000" stroke="none" 
	d="
M130.884277,304.898376 
	C130.676331,304.929535 130.378662,304.738617 130.108246,304.275146 
	C130.435379,304.148712 130.655075,304.373291 130.884277,304.898376 
z"/>
<path fill="#F1E4C6" opacity="1.000000" stroke="none" 
	d="
M322.890808,189.872253 
	C322.692078,189.931366 322.377869,189.744263 321.989868,189.284363 
	C322.202515,189.216400 322.488922,189.421234 322.890808,189.872253 
z"/>
</svg>